<svg width="56" height="57" viewBox="0 0 56 57" fill="none" xmlns="http://www.w3.org/2000/svg">
<rect x="0.5" y="1" width="55" height="55" rx="27.5" stroke="#CACACA"/>
<path d="M41.074 25.8886H40V25.8333H28V31.1666H35.5353C34.436 34.2713 31.482 36.5 28 36.5C23.582 36.5 20 32.918 20 28.5C20 24.082 23.582 20.5 28 20.5C30.0393 20.5 31.8947 21.2693 33.3073 22.526L37.0787 18.7546C34.6973 16.5353 31.512 15.1666 28 15.1666C20.6367 15.1666 14.6667 21.1366 14.6667 28.5C14.6667 35.8633 20.6367 41.8333 28 41.8333C35.3633 41.8333 41.3333 35.8633 41.3333 28.5C41.3333 27.606 41.2413 26.7333 41.074 25.8886Z" fill="#FFC107"/>
<path d="M16.204 22.294L20.5847 25.5066C21.77 22.572 24.6407 20.5 28 20.5C30.0393 20.5 31.8947 21.2693 33.3073 22.526L37.0787 18.7546C34.6973 16.5353 31.512 15.1666 28 15.1666C22.8787 15.1666 18.4373 18.058 16.204 22.294Z" fill="#FF3D00"/>
<path d="M28 41.8333C31.444 41.8333 34.5733 40.5153 36.9393 38.372L32.8127 34.88C31.429 35.9322 29.7383 36.5013 28 36.5C24.532 36.5 21.5873 34.2886 20.478 31.2026L16.13 34.5526C18.3367 38.8706 22.818 41.8333 28 41.8333Z" fill="#4CAF50"/>
<path d="M41.074 25.8887H40V25.8334H28V31.1667H35.5353C35.0095 32.6443 34.0622 33.9355 32.8107 34.8807L32.8127 34.8794L36.9393 38.3714C36.6473 38.6367 41.3333 35.1667 41.3333 28.5C41.3333 27.606 41.2413 26.7334 41.074 25.8887Z" fill="#1976D2"/>
</svg>
