<svg width="174" height="38" viewBox="0 0 174 38" fill="none" xmlns="http://www.w3.org/2000/svg">
<path d="M6.69845 10.4269C6.69845 10.9162 7.09514 11.3129 7.58449 11.3129H16.4927C16.9821 11.3129 17.3787 11.7096 17.3787 12.199V15.8973C17.3787 16.3866 16.9821 16.7833 16.4927 16.7833H7.58449C7.09514 16.7833 6.69845 17.18 6.69845 17.6694V25.7217C6.69845 26.211 6.30175 26.6077 5.81241 26.6077H0.886039C0.396693 26.6077 0 26.211 0 25.7217V0.886038C0 0.396693 0.396693 0 0.886038 0H18.9116C19.4009 0 19.7976 0.396693 19.7976 0.886038V4.58436C19.7976 5.07371 19.4009 5.4704 18.9116 5.4704H7.58449C7.09514 5.4704 6.69845 5.86709 6.69845 6.35644V10.4269Z" fill="#0C53A3"/>
<path d="M29.6831 27.2031C23.3196 27.2031 19.4865 22.998 19.4865 17.081C19.4865 11.1641 23.3196 6.95894 29.6831 6.95894C36.0094 6.95894 39.8424 11.1641 39.8424 17.081C39.8424 22.998 36.0094 27.2031 29.6831 27.2031ZM29.6831 22.7375C32.288 22.7375 33.8882 20.7652 33.8882 17.081C33.8882 13.3969 32.288 11.4246 29.6831 11.4246C27.0409 11.4246 25.4407 13.3969 25.4407 17.081C25.4407 20.7652 27.0409 22.7375 29.6831 22.7375Z" fill="#0C53A3"/>
<path d="M54.2478 8.4404C54.2478 7.95105 54.6445 7.55436 55.1339 7.55436H59.316C59.8053 7.55436 60.202 7.95105 60.202 8.4404V25.7217C60.202 26.211 59.8053 26.6077 59.316 26.6077H55.1339C54.6445 26.6077 54.2478 26.211 54.2478 25.7217V23.9011C54.2478 23.875 54.2267 23.8539 54.2007 23.8539C54.1838 23.8539 54.1683 23.8629 54.1598 23.8775C53.1519 25.6173 51.2928 27.2031 47.9215 27.2031C44.2374 27.2031 41.7441 24.7843 41.7441 20.4303V8.4404C41.7441 7.95105 42.1408 7.55436 42.6301 7.55436H46.8122C47.3015 7.55436 47.6982 7.95105 47.6982 8.4404V18.5324C47.6982 21.3978 48.703 22.3654 50.6753 22.3654C52.9454 22.3654 54.2478 21.2118 54.2478 18.5696V8.4404Z" fill="#0C53A3"/>
<path d="M75.3968 6.95894C79.0809 6.95894 81.5742 9.37783 81.5742 13.7318V25.7217C81.5742 26.211 81.1775 26.6077 80.6882 26.6077H76.5061C76.0168 26.6077 75.6201 26.211 75.6201 25.7217V15.6297C75.6201 12.7643 74.6153 11.7967 72.643 11.7967C70.3729 11.7967 69.0705 12.9503 69.0705 15.5925V25.7217C69.0705 26.211 68.6738 26.6077 68.1844 26.6077H64.0023C63.513 26.6077 63.1163 26.211 63.1163 25.7217V8.4404C63.1163 7.95105 63.513 7.55436 64.0023 7.55436H68.1844C68.6738 7.55436 69.0705 7.95105 69.0705 8.4404V10.261C69.0705 10.2871 69.0916 10.3082 69.1176 10.3082C69.1345 10.3082 69.15 10.2992 69.1585 10.2846C70.1664 8.5448 72.0255 6.95894 75.3968 6.95894Z" fill="#0C53A3"/>
<path d="M97.9342 0.886039C97.9342 0.396694 98.3309 0 98.8202 0H100.025C100.515 0 100.911 0.396693 100.911 0.886038V25.7217C100.911 26.211 100.515 26.6077 100.025 26.6077H98.8202C98.3309 26.6077 97.9342 26.211 97.9342 25.7217V24.3131C97.9342 24.2856 97.9118 24.2633 97.8843 24.2633C97.8688 24.2633 97.8543 24.2704 97.8448 24.2826C96.7274 25.7271 94.9435 27.1287 91.9056 27.1287C87.1422 27.1287 83.3464 23.3701 83.3464 17.1183C83.3464 10.8664 87.1422 7.1078 91.9056 7.1078C94.9439 7.1078 96.7279 8.43594 97.8452 10.0637C97.8543 10.077 97.8694 10.0849 97.8855 10.0849C97.9124 10.0849 97.9342 10.0631 97.9342 10.0362V0.886039ZM92.2033 24.5238C95.7386 24.5238 97.9342 21.5839 97.9342 17.1183C97.9342 12.6526 95.7386 9.71275 92.2033 9.71275C88.2958 9.71275 86.3235 13.3969 86.3235 17.1183C86.3235 20.8396 88.2958 24.5238 92.2033 24.5238Z" fill="url(#paint0_linear_303_48)"/>
<path d="M113.07 24.5238C116.3 24.5238 117.806 22.7454 118.389 21.4126C118.551 21.0422 118.898 20.7652 119.302 20.7652H120.431C121.016 20.7652 121.441 21.3231 121.224 21.866C120.024 24.8697 117.406 27.1287 113.182 27.1287C107.414 27.1287 103.916 23.0724 103.916 17.1183C103.916 10.7919 107.488 7.1078 113.033 7.1078C118.721 7.1078 121.624 10.8093 121.872 17.012C121.892 17.501 121.493 17.8997 121.004 17.8997H107.779C107.289 17.8997 106.888 18.2977 106.939 18.7843C107.264 21.8549 109.298 24.5238 113.07 24.5238ZM113.033 9.71275C109.811 9.71275 107.407 11.7706 106.966 14.4126C106.885 14.8952 107.289 15.2948 107.779 15.2948H118.027C118.516 15.2948 118.92 14.8957 118.847 14.4118C118.447 11.7702 116.254 9.71275 113.033 9.71275Z" fill="url(#paint1_linear_303_48)"/>
<path d="M132.913 24.5238C136.143 24.5238 137.648 22.7454 138.231 21.4126C138.394 21.0422 138.74 20.7652 139.144 20.7652H140.273C140.858 20.7652 141.283 21.3231 141.066 21.866C139.867 24.8697 137.248 27.1287 133.024 27.1287C127.256 27.1287 123.758 23.0724 123.758 17.1183C123.758 10.7919 127.331 7.1078 132.875 7.1078C138.563 7.1078 141.466 10.8093 141.715 17.012C141.734 17.501 141.336 17.8997 140.846 17.8997H127.621C127.132 17.8997 126.73 18.2977 126.781 18.7843C127.106 21.8549 129.14 24.5238 132.913 24.5238ZM132.875 9.71275C129.654 9.71275 127.249 11.7706 126.808 14.4126C126.727 14.8952 127.132 15.2948 127.621 15.2948H137.869C138.358 15.2948 138.763 14.8957 138.689 14.4118C138.289 11.7702 136.097 9.71275 132.875 9.71275Z" fill="url(#paint2_linear_303_48)"/>
<path d="M152.578 9.3477C152.578 9.83705 152.181 10.2337 151.692 10.2337H149.742C149.253 10.2337 148.856 10.6304 148.856 11.1198V21.6583C148.856 23.5249 149.747 24.0555 151.624 24.0446C152.139 24.0416 152.578 24.4414 152.578 24.9564V25.897C152.578 26.3123 152.29 26.6754 151.878 26.7313C151.389 26.7978 150.867 26.831 150.345 26.831C147.814 26.831 145.879 25.8262 145.879 21.956V11.1198C145.879 10.6304 145.483 10.2337 144.993 10.2337H143.974C143.485 10.2337 143.088 9.83705 143.088 9.3477V8.51482C143.088 8.02548 143.485 7.62879 143.974 7.62879H144.993C145.483 7.62879 145.879 7.23209 145.879 6.74275V2.18851C145.879 1.69917 146.276 1.30248 146.765 1.30248H147.97C148.46 1.30248 148.856 1.69917 148.856 2.18851V6.74275C148.856 7.23209 149.253 7.62879 149.742 7.62879H151.692C152.181 7.62879 152.578 8.02548 152.578 8.51482V9.3477Z" fill="url(#paint3_linear_303_48)"/>
<path d="M157.692 26.8682C156.538 26.8682 155.645 26.0867 155.645 24.8215C155.645 23.5934 156.538 22.7747 157.692 22.7747C158.846 22.7747 159.739 23.5934 159.739 24.8215C159.739 26.0867 158.846 26.8682 157.692 26.8682Z" fill="url(#paint4_linear_303_48)"/>
<path fill-rule="evenodd" clip-rule="evenodd" d="M88.3297 37.6654C72.6828 36.8485 53.4942 34.1582 40.7826 30.9988C35.3894 29.6584 26.8833 27.1089 26.0783 26.5916C25.0548 25.9342 26.1402 25.9799 28.6325 26.6996C31.7539 27.6008 39.2846 29.3202 45.5837 30.5695C54.753 32.3885 69.8643 34.202 82.1346 34.9563C90.3536 35.4615 111.268 35.4689 118.221 34.9689C140.308 33.3807 156.606 29.3646 164.101 23.6625C167.834 20.8222 168.9 16.911 166.877 13.4723C165.513 11.1533 160.493 7.05937 156.949 5.3752C155.651 4.75888 155.499 4.19996 156.708 4.49192C158.127 4.8348 164.344 7.90778 166.73 9.44504C169.428 11.1841 172.264 13.9399 173.163 15.6965C173.669 16.6848 173.822 17.5437 173.822 19.4105C173.822 21.6095 173.731 21.9752 172.862 23.2825C171.382 25.509 169.358 27.0459 165.303 29.0224C155.83 33.64 140.894 36.6602 122.506 37.6762C116.219 38.0234 95.0624 38.0166 88.3297 37.6654Z" fill="#0C53A3"/>
<defs>
<linearGradient id="paint0_linear_303_48" x1="93.4771" y1="9.74642" x2="195.815" y2="46.517" gradientUnits="userSpaceOnUse">
<stop stop-color="#67CE67"/>
<stop offset="1" stop-color="#0C53A3"/>
</linearGradient>
<linearGradient id="paint1_linear_303_48" x1="93.4771" y1="9.74642" x2="195.815" y2="46.517" gradientUnits="userSpaceOnUse">
<stop stop-color="#67CE67"/>
<stop offset="1" stop-color="#0C53A3"/>
</linearGradient>
<linearGradient id="paint2_linear_303_48" x1="93.4771" y1="9.74642" x2="195.815" y2="46.517" gradientUnits="userSpaceOnUse">
<stop stop-color="#67CE67"/>
<stop offset="1" stop-color="#0C53A3"/>
</linearGradient>
<linearGradient id="paint3_linear_303_48" x1="93.4771" y1="9.74642" x2="195.815" y2="46.517" gradientUnits="userSpaceOnUse">
<stop stop-color="#67CE67"/>
<stop offset="1" stop-color="#0C53A3"/>
</linearGradient>
<linearGradient id="paint4_linear_303_48" x1="93.4771" y1="9.74642" x2="195.815" y2="46.517" gradientUnits="userSpaceOnUse">
<stop stop-color="#67CE67"/>
<stop offset="1" stop-color="#0C53A3"/>
</linearGradient>
</defs>
</svg>
