<svg width="249" height="136" viewBox="0 0 249 136" fill="none" xmlns="http://www.w3.org/2000/svg">
<path fill-rule="evenodd" clip-rule="evenodd" d="M59.6049 0.927509C51.8653 3.15144 49.246 7.41044 48.6815 18.6882L48.2652 27.0082L32.9516 27.4242C19.5505 27.7886 17.524 28.0224 16.7205 29.2962C16.052 30.357 16.0528 31.1474 16.7214 32.2082C17.5331 33.4953 19.4322 33.69 33.1281 33.8905L48.6174 34.1168L48.8572 41.2903C49.0503 47.0477 49.3859 48.6451 50.5548 49.3798C51.6155 50.0462 52.4081 50.0462 53.4688 49.3781C54.7693 48.5586 54.95 46.5701 55.1506 30.8703C55.2814 20.6217 55.7018 13.2802 56.1572 13.2802C56.5868 13.2802 62.3458 17.8662 68.9548 23.4722C75.5638 29.0782 88.2639 39.8418 97.1783 47.3921L113.386 61.1201L110.382 64.6453C104.546 71.4935 56.5827 122.977 55.9799 123.04C55.6435 123.075 55.2689 112.527 55.1473 99.6001L54.9258 76.0961H52.0118H49.0978L48.6815 94.4001L48.2652 112.704L38.3617 113.12C30.1242 113.466 28.305 113.781 27.5432 114.992C26.8763 116.051 26.8763 116.845 27.5432 117.904C28.3042 119.114 30.1209 119.431 38.2718 119.776L48.0854 120.192L49.097 124.182C50.1693 128.412 53.3015 132.338 57.4236 134.618C59.7073 135.881 67.4603 136 147.758 136C196.068 136 236.618 135.714 237.87 135.364C241.018 134.483 246.025 129.91 247.375 126.68C248.282 124.51 248.5 113.106 248.5 67.7695C248.5 14.1738 248.426 11.4057 246.918 8.46293C245.143 5.00015 241.97 2.39432 237.761 0.943315C234.141 -0.303851 63.9418 -0.319657 59.6049 0.927509ZM62.4332 8.3115C62.9627 9.16762 135.659 71.2164 144.141 78.0521C148.08 81.227 148.81 81.534 150.066 80.5481C150.854 79.9299 163.864 68.9234 178.976 56.0899C194.089 43.2563 212.824 27.3817 220.609 20.8123C228.393 14.2428 235.118 8.55028 235.553 8.16257C235.988 7.77403 197.095 7.4562 149.124 7.4562C89.5902 7.4562 62.0727 7.72743 62.4332 8.3115ZM227.092 24.4256C193.625 52.8043 184.914 60.3563 184.623 61.2424C184.344 62.0936 199.758 79.0863 229.695 110.929C235.23 116.816 239.883 121.963 240.035 122.369C241.523 126.311 241.839 116.8 241.839 68.1921C241.839 33.5285 241.544 13.2802 241.038 13.2802C240.596 13.2802 234.32 18.2955 227.092 24.4256ZM17.519 60.3472C16.7996 61.0669 16.211 62.1634 16.211 62.7841C16.211 63.4048 16.7996 64.5014 17.519 65.221C18.6604 66.3609 22.6618 66.5281 48.7956 66.5281C67.8616 66.5281 79.3495 66.2144 80.3744 65.667C82.1744 64.7044 82.5149 61.5669 80.9855 60.0385C80.2445 59.298 72.0811 59.0401 49.4067 59.0401C22.7176 59.0401 18.6613 59.2065 17.519 60.3472ZM89.8941 97.055C74.3249 113.826 61.4616 127.858 61.3092 128.237C61.156 128.618 100.402 128.928 148.522 128.928C196.64 128.928 236.011 128.724 236.011 128.475C236.011 127.906 180.521 68.0515 179.031 67.0123C178.242 66.4632 174.031 69.5541 164.012 78.0363C156.355 84.5201 149.416 89.8241 148.592 89.8241C147.769 89.8241 140.969 84.5941 133.481 78.2027C125.993 71.8105 119.492 66.5772 119.034 66.5722C118.576 66.5664 105.463 80.2844 89.8941 97.055ZM6.19927 76.9531C5.39167 77.9257 5.36336 78.7094 6.0802 80.2811L7.01685 82.3361H22.4553H37.8938L38.8305 80.2811C39.5473 78.7094 39.519 77.9257 38.7114 76.9531C37.833 75.8956 35.0805 75.6801 22.4553 75.6801C9.83013 75.6801 7.07764 75.8956 6.19927 76.9531ZM1.26292 92.6903C0.713417 93.3518 0.387046 94.7553 0.536077 95.8103C0.805832 97.7081 0.946529 97.7306 13.8024 97.9569C24.7299 98.149 26.9671 97.9793 27.8704 96.8919C28.6947 95.8993 28.7263 95.1214 28.007 93.5431C27.072 91.4914 27.0495 91.4881 14.6657 91.4881C4.86547 91.4881 2.05137 91.7402 1.26292 92.6903Z" fill="#052549"/>
</svg>
